<?xml version="1.0" encoding="UTF-8" standalone="no"?>
<svg
   width="200"
   height="200"
   viewBox="0 0 120 120"
   version="1.1"
   id="svg2"
   sodipodi:docname="arx-path.svg"
   inkscape:version="1.4.2 (ebf0e940d0, 2025-05-08)"
   xmlns:inkscape="http://www.inkscape.org/namespaces/inkscape"
   xmlns:sodipodi="http://sodipodi.sourceforge.net/DTD/sodipodi-0.dtd"
   xmlns="http://www.w3.org/2000/svg"
   xmlns:svg="http://www.w3.org/2000/svg">
  <sodipodi:namedview
     id="namedview2"
     pagecolor="#505050"
     bordercolor="#eeeeee"
     borderopacity="1"
     inkscape:showpageshadow="0"
     inkscape:pageopacity="0"
     inkscape:pagecheckerboard="0"
     inkscape:deskcolor="#505050"
     inkscape:zoom="3.81"
     inkscape:cx="100"
     inkscape:cy="100.13123"
     inkscape:window-width="1829"
     inkscape:window-height="967"
     inkscape:window-x="0"
     inkscape:window-y="0"
     inkscape:window-maximized="1"
     inkscape:current-layer="svg2" />
  <defs
     id="defs2">
    <!-- Moon gradient -->
    <radialGradient
       id="moonGradient"
       cx="50%"
       cy="50%"
       r="50%">
      <stop
         offset="0%"
         stop-color="#fdfdfd"
         id="stop1" />
      <stop
         offset="100%"
         stop-color="#e0e0e0"
         id="stop2" />
    </radialGradient>
  </defs>
  <!-- Full moon background -->
  <circle
     cx="60"
     cy="60"
     r="50"
     fill="url(#moonGradient)"
     stroke="#ffffff"
     stroke-width="1"
     id="circle2" />
  <!-- ARX Text -->
  <path
     d="m 46.949984,47.903 q 0.696,2.175 1.363,4.408 0.696,2.204 1.334,4.64 0.667,2.436 1.305,5.162 0.667,2.726 1.334,5.887 h -2.61 q -0.232,-1.305 -0.493,-2.581 -0.232,-1.276 -0.493,-2.552 h -6.322 q -0.29,1.276 -0.522,2.552 -0.232,1.276 -0.464,2.581 h -2.523 q 0.638,-3.161 1.305,-5.887 0.667,-2.726 1.305,-5.162 0.667,-2.436 1.334,-4.64 0.696,-2.233 1.392,-4.408 z m -1.421,2.958 q -0.725,2.407 -1.392,4.843 -0.667,2.436 -1.276,4.988 h 5.307 q -0.58,-2.552 -1.247,-4.988 -0.667,-2.436 -1.392,-4.843 z m 9.773008,-2.668 q 2.03,-0.493 3.915,-0.493 1.508,0 2.726,0.348 1.218,0.348 2.088,1.102 0.87,0.754 1.334,1.943 0.493,1.189 0.493,2.871 0,2.088 -0.812,3.393 -0.783,1.276 -2.146,1.943 0.348,0.58 0.87,1.595 0.551,0.986 1.102,2.204 0.58,1.189 1.102,2.465 0.551,1.276 0.928,2.436 h -2.61 q -0.319,-0.87 -0.812,-1.972 -0.464,-1.102 -0.986,-2.175 -0.522,-1.102 -1.044,-2.088 -0.522,-1.015 -0.928,-1.711 -0.464,0.058 -0.957,0.087 -0.493,0.029 -0.986,0.029 h -0.725 V 68 h -2.552 z m 2.552,9.831 h 1.102 q 2.001,0 3.074,-0.899 1.073,-0.928 1.073,-3.161 0,-1.131 -0.29,-1.885 -0.261,-0.783 -0.783,-1.218 -0.493,-0.464 -1.218,-0.667 -0.696,-0.203 -1.566,-0.203 -0.754,0 -1.392,0.087 z m 16.994004,-2.755 3.451,-7.366 h 2.61 l -4.582,9.338 q 0.609,1.305 1.276,2.726 0.696,1.392 1.334,2.813 0.667,1.392 1.247,2.726 0.58,1.334 1.015,2.494 h -2.581 q -0.319,-0.87 -0.754,-1.885 -0.406,-1.044 -0.928,-2.117 -0.493,-1.073 -1.044,-2.175 -0.522,-1.131 -1.044,-2.175 -0.522,1.044 -1.073,2.175 -0.551,1.102 -1.044,2.175 -0.493,1.073 -0.928,2.117 -0.406,1.015 -0.696,1.885 h -2.523 q 0.406,-1.131 0.986,-2.436 0.58,-1.305 1.218,-2.668 0.638,-1.392 1.276,-2.784 0.667,-1.392 1.276,-2.668 l -4.64,-9.541 h 2.668 z"
     id="text2"
     style="font-size:29px;font-family:'Ubuntu Condensed', sans-serif;text-anchor:middle;fill:#5a9cfe;stroke:#ffffff;stroke-width:0.5"
     aria-label="ARX" />
  <!-- Star -->
  <path
     d="m 90.458392,27.056315 c 0.06546,0.493371 -8.910638,3.36632 -9.21901,3.752205 -0.308372,0.385885 -0.890364,9.797844 -1.375076,9.858299 -0.493371,0.06546 -3.366321,-8.910638 -3.752205,-9.21901 -0.385885,-0.308372 -9.797844,-0.890364 -9.8583,-1.375076 -0.06546,-0.493371 8.910639,-3.36632 9.219011,-3.752205 0.308372,-0.385885 0.881704,-9.792844 1.375075,-9.858299 0.493372,-0.06546 3.366321,8.910638 3.752206,9.21901 0.385884,0.308372 9.797844,0.890364 9.858299,1.375076 z"
     fill="#a8cbfe"
     stroke="#ffffff"
     stroke-width="1"
     id="path2" />
</svg>
