<?xml version="1.0" encoding="UTF-8" standalone="no"?>
<!-- Created with Inkscape (http://www.inkscape.org/) -->

<svg
   width="120"
   height="120"
   viewBox="0 0 120 120"
   version="1.1"
   id="svg1"
   inkscape:version="1.4.2 (ebf0e940d0, 2025-05-08)"
   sodipodi:docname="arx-path.svg"
   xmlns:inkscape="http://www.inkscape.org/namespaces/inkscape"
   xmlns:sodipodi="http://sodipodi.sourceforge.net/DTD/sodipodi-0.dtd"
   xmlns="http://www.w3.org/2000/svg"
   xmlns:svg="http://www.w3.org/2000/svg">
  <sodipodi:namedview
     id="namedview1"
     pagecolor="#505050"
     bordercolor="#eeeeee"
     borderopacity="1"
     inkscape:showpageshadow="0"
     inkscape:pageopacity="0"
     inkscape:pagecheckerboard="0"
     inkscape:deskcolor="#505050"
     inkscape:document-units="px"
     inkscape:zoom="6.3166667"
     inkscape:cx="60"
     inkscape:cy="60.079155"
     inkscape:window-width="1829"
     inkscape:window-height="967"
     inkscape:window-x="0"
     inkscape:window-y="0"
     inkscape:window-maximized="1"
     inkscape:current-layer="layer1" />
  <defs
     id="defs1">
    <rect
       x="37.361478"
       y="61.108179"
       width="66.965699"
       height="35.936676"
       id="rect2" />
  </defs>
  <g
     inkscape:label="Layer 1"
     inkscape:groupmode="layer"
     id="layer1">
    <circle
       style="fill:#080808;stroke-width:1;stroke-linecap:square;stroke-linejoin:round;paint-order:stroke fill markers;stroke:#ffffff;stroke-opacity:1;stroke-dasharray:none"
       id="path1"
       cx="60"
       cy="60"
       r="43.852242" />
    <path
       d="m 57.644726,68.132518 q 0.703999,2.199998 1.378665,4.458662 0.703999,2.229331 1.349331,4.693328 0.674666,2.463997 1.319999,5.221327 0.674666,2.75733 1.349332,5.95466 h -2.639997 q -0.234667,-1.319999 -0.498666,-2.610664 -0.234667,-1.290665 -0.498666,-2.58133 h -6.39466 q -0.293333,1.290665 -0.527999,2.58133 -0.234667,1.290665 -0.469333,2.610664 h -2.551997 q 0.645333,-3.19733 1.319998,-5.95466 0.674666,-2.75733 1.319999,-5.221327 0.674666,-2.463997 1.349332,-4.693328 0.703999,-2.258664 1.407998,-4.458662 z m -1.437332,2.991997 q -0.733333,2.434664 -1.407998,4.898661 -0.674666,2.463997 -1.290666,5.045327 h 5.367994 q -0.586666,-2.58133 -1.261332,-5.045327 -0.674666,-2.463997 -1.407998,-4.898661 z m 9.88533,-2.698664 q 2.053331,-0.498666 3.959995,-0.498666 1.525332,0 2.757331,0.352 1.231998,0.351999 2.111997,1.114665 0.879999,0.762666 1.349332,1.965331 0.498666,1.202665 0.498666,2.903997 0,2.111997 -0.821332,3.431996 -0.791999,1.290665 -2.170665,1.965331 0.352,0.586666 0.879999,1.613331 0.557333,0.997333 1.114666,2.229331 0.586666,1.202666 1.114665,2.493331 0.557333,1.290665 0.938666,2.463997 h -2.639997 q -0.322666,-0.879999 -0.821333,-1.994665 -0.469332,-1.114665 -0.997332,-2.199997 -0.527999,-1.114665 -1.055999,-2.111998 -0.527999,-1.026665 -0.938665,-1.730664 -0.469333,0.05867 -0.967999,0.088 -0.498666,0.02933 -0.997332,0.02933 h -0.733333 v 7.919991 h -2.58133 z m 2.58133,9.943989 h 1.114666 q 2.023997,0 3.109329,-0.909333 1.085333,-0.938665 1.085333,-3.197329 0,-1.143999 -0.293333,-1.906665 -0.264,-0.791999 -0.792,-1.231998 -0.498666,-0.469333 -1.231998,-0.674666 -0.703999,-0.205333 -1.583998,-0.205333 -0.762666,0 -1.407999,0.088 z m 17.18932,-2.786664 3.490663,-7.450658 h 2.639997 l -4.634662,9.445323 q 0.616,1.319998 1.290665,2.75733 0.704,1.407998 1.349332,2.84533 0.674666,1.407998 1.261332,2.75733 0.586666,1.349332 1.026666,2.522664 h -2.610664 q -0.322666,-0.879999 -0.762666,-1.906665 -0.410666,-1.055998 -0.938665,-2.14133 -0.498667,-1.085333 -1.055999,-2.199998 -0.528,-1.143999 -1.055999,-2.199997 -0.527999,1.055998 -1.085332,2.199997 -0.557333,1.114665 -1.055999,2.199998 -0.498666,1.085332 -0.938666,2.14133 -0.410666,1.026666 -0.703999,1.906665 h -2.551997 q 0.410666,-1.143999 0.997332,-2.463997 0.586666,-1.319999 1.231999,-2.698664 0.645333,-1.407998 1.290665,-2.815997 0.674666,-1.407998 1.290665,-2.698663 l -4.693328,-9.650656 h 2.698664 z"
       id="text2"
       style="font-size:29.3333px;font-family:'Ubuntu Condensed';-inkscape-font-specification:'Ubuntu Condensed, ';text-align:center;text-anchor:middle;white-space:pre;fill:#5a9cfe;stroke:#ffffff;stroke-linecap:square;stroke-linejoin:round;paint-order:stroke fill markers"
       transform="translate(-10.874044)"
       aria-label="ARX" />
    <path
       sodipodi:type="star"
       style="fill:#a8cbfe;stroke:#ffffff;stroke-linecap:square;stroke-linejoin:round;paint-order:stroke fill markers"
       id="path3"
       inkscape:flatsided="false"
       sodipodi:sides="4"
       sodipodi:cx="44.485489"
       sodipodi:cy="37.836411"
       sodipodi:r1="12.202303"
       sodipodi:r2="3.6606908"
       sodipodi:arg1="0.3997811"
       sodipodi:arg2="1.1851793"
       inkscape:rounded="0.05"
       inkscape:randomized="0"
       d="m 55.725594,42.585751 c -0.193756,0.458555 -9.401953,-1.544708 -9.863206,-1.357467 -0.461253,0.187241 -5.667684,8.041987 -6.126239,7.848232 -0.458555,-0.193756 1.544708,-9.401953 1.357466,-9.863206 -0.187241,-0.461254 -8.041987,-5.667685 -7.848231,-6.12624 0.193755,-0.458555 9.401953,1.544708 9.863206,1.357467 0.461253,-0.187241 5.667684,-8.041987 6.126239,-7.848232 0.458555,0.193756 -1.544708,9.401953 -1.357467,9.863207 0.187242,0.461253 8.041988,5.667684 7.848232,6.126239 z"
       transform="rotate(-30,59.140654,-26.310629)" />
  </g>
</svg>
